<mxfile host="www.draw.io" modified="2019-11-12T05:57:52.940Z" agent="Mozilla/5.0 (Macintosh; Intel Mac OS X 10_15_1) AppleWebKit/537.36 (KHTML, like Gecko) Chrome/78.0.3904.97 Safari/537.36" etag="Fd3zVV6XDBAHvwN1scqP" version="12.2.3" type="github" pages="1">
  <diagram id="Tn44TmRS7ulHM2Tp6w8q" name="Page-1">
    <mxGraphModel dx="1773" dy="552" grid="1" gridSize="10" guides="1" tooltips="1" connect="1" arrows="1" fold="1" page="1" pageScale="1" pageWidth="827" pageHeight="1169" math="0" shadow="0">
      <root>
        <mxCell id="0"/>
        <mxCell id="1" parent="0"/>
        <mxCell id="E58zXkHPN5G_P_hJAgaH-1" value="货架" style="rounded=0;whiteSpace=wrap;html=1;" vertex="1" parent="1">
          <mxGeometry x="180" y="10" width="120" height="60" as="geometry"/>
        </mxCell>
        <mxCell id="E58zXkHPN5G_P_hJAgaH-2" value="运营活动" style="rounded=0;whiteSpace=wrap;html=1;" vertex="1" parent="1">
          <mxGeometry x="353" y="10" width="120" height="60" as="geometry"/>
        </mxCell>
        <mxCell id="E58zXkHPN5G_P_hJAgaH-3" value="" style="endArrow=none;dashed=1;html=1;" edge="1" parent="1">
          <mxGeometry width="50" height="50" relative="1" as="geometry">
            <mxPoint x="100" y="90" as="sourcePoint"/>
            <mxPoint x="530" y="90" as="targetPoint"/>
          </mxGeometry>
        </mxCell>
        <mxCell id="E58zXkHPN5G_P_hJAgaH-4" value="" style="shape=flexArrow;endArrow=classic;html=1;" edge="1" parent="1">
          <mxGeometry width="50" height="50" relative="1" as="geometry">
            <mxPoint x="325" y="80" as="sourcePoint"/>
            <mxPoint x="325" y="130" as="targetPoint"/>
          </mxGeometry>
        </mxCell>
        <mxCell id="E58zXkHPN5G_P_hJAgaH-14" value="" style="edgeStyle=orthogonalEdgeStyle;rounded=0;orthogonalLoop=1;jettySize=auto;html=1;" edge="1" parent="1" source="E58zXkHPN5G_P_hJAgaH-5" target="E58zXkHPN5G_P_hJAgaH-13">
          <mxGeometry relative="1" as="geometry">
            <Array as="points">
              <mxPoint x="440" y="280"/>
              <mxPoint x="440" y="280"/>
            </Array>
          </mxGeometry>
        </mxCell>
        <mxCell id="E58zXkHPN5G_P_hJAgaH-16" style="edgeStyle=orthogonalEdgeStyle;rounded=0;orthogonalLoop=1;jettySize=auto;html=1;" edge="1" parent="1" source="E58zXkHPN5G_P_hJAgaH-5" target="E58zXkHPN5G_P_hJAgaH-15">
          <mxGeometry relative="1" as="geometry">
            <Array as="points">
              <mxPoint x="420" y="280"/>
              <mxPoint x="420" y="360"/>
            </Array>
          </mxGeometry>
        </mxCell>
        <mxCell id="E58zXkHPN5G_P_hJAgaH-20" value="" style="edgeStyle=orthogonalEdgeStyle;rounded=0;orthogonalLoop=1;jettySize=auto;html=1;" edge="1" parent="1" source="E58zXkHPN5G_P_hJAgaH-5" target="E58zXkHPN5G_P_hJAgaH-19">
          <mxGeometry relative="1" as="geometry">
            <Array as="points">
              <mxPoint x="420" y="280"/>
              <mxPoint x="420" y="200"/>
            </Array>
          </mxGeometry>
        </mxCell>
        <mxCell id="E58zXkHPN5G_P_hJAgaH-30" style="edgeStyle=orthogonalEdgeStyle;rounded=0;orthogonalLoop=1;jettySize=auto;html=1;entryX=0;entryY=0.5;entryDx=0;entryDy=0;" edge="1" parent="1" source="E58zXkHPN5G_P_hJAgaH-5" target="E58zXkHPN5G_P_hJAgaH-29">
          <mxGeometry relative="1" as="geometry"/>
        </mxCell>
        <mxCell id="E58zXkHPN5G_P_hJAgaH-40" style="edgeStyle=orthogonalEdgeStyle;rounded=0;orthogonalLoop=1;jettySize=auto;html=1;entryX=0;entryY=0.5;entryDx=0;entryDy=0;" edge="1" parent="1" source="E58zXkHPN5G_P_hJAgaH-5" target="E58zXkHPN5G_P_hJAgaH-39">
          <mxGeometry relative="1" as="geometry"/>
        </mxCell>
        <mxCell id="E58zXkHPN5G_P_hJAgaH-5" value="产品" style="rounded=0;whiteSpace=wrap;html=1;" vertex="1" parent="1">
          <mxGeometry x="265" y="250" width="120" height="60" as="geometry"/>
        </mxCell>
        <mxCell id="E58zXkHPN5G_P_hJAgaH-19" value="券商" style="rounded=0;whiteSpace=wrap;html=1;" vertex="1" parent="1">
          <mxGeometry x="450" y="170" width="120" height="60" as="geometry"/>
        </mxCell>
        <mxCell id="E58zXkHPN5G_P_hJAgaH-18" value="" style="edgeStyle=orthogonalEdgeStyle;rounded=0;orthogonalLoop=1;jettySize=auto;html=1;" edge="1" parent="1" source="E58zXkHPN5G_P_hJAgaH-13" target="E58zXkHPN5G_P_hJAgaH-17">
          <mxGeometry relative="1" as="geometry">
            <Array as="points">
              <mxPoint x="610" y="280"/>
              <mxPoint x="610" y="350"/>
            </Array>
          </mxGeometry>
        </mxCell>
        <mxCell id="E58zXkHPN5G_P_hJAgaH-22" style="edgeStyle=orthogonalEdgeStyle;rounded=0;orthogonalLoop=1;jettySize=auto;html=1;" edge="1" parent="1" source="E58zXkHPN5G_P_hJAgaH-13" target="E58zXkHPN5G_P_hJAgaH-21">
          <mxGeometry relative="1" as="geometry"/>
        </mxCell>
        <mxCell id="E58zXkHPN5G_P_hJAgaH-24" style="edgeStyle=orthogonalEdgeStyle;rounded=0;orthogonalLoop=1;jettySize=auto;html=1;entryX=0;entryY=0.5;entryDx=0;entryDy=0;" edge="1" parent="1" source="E58zXkHPN5G_P_hJAgaH-13" target="E58zXkHPN5G_P_hJAgaH-23">
          <mxGeometry relative="1" as="geometry"/>
        </mxCell>
        <mxCell id="E58zXkHPN5G_P_hJAgaH-13" value="基础产品" style="rounded=0;whiteSpace=wrap;html=1;" vertex="1" parent="1">
          <mxGeometry x="450" y="250" width="120" height="60" as="geometry"/>
        </mxCell>
        <mxCell id="E58zXkHPN5G_P_hJAgaH-17" value="货基" style="rounded=0;whiteSpace=wrap;html=1;" vertex="1" parent="1">
          <mxGeometry x="640" y="320" width="120" height="60" as="geometry"/>
        </mxCell>
        <mxCell id="E58zXkHPN5G_P_hJAgaH-7" value="" style="endArrow=none;dashed=1;html=1;" edge="1" parent="1">
          <mxGeometry width="50" height="50" relative="1" as="geometry">
            <mxPoint x="110" y="490" as="sourcePoint"/>
            <mxPoint x="540" y="490" as="targetPoint"/>
          </mxGeometry>
        </mxCell>
        <mxCell id="E58zXkHPN5G_P_hJAgaH-8" value="" style="shape=flexArrow;endArrow=classic;html=1;" edge="1" parent="1">
          <mxGeometry width="50" height="50" relative="1" as="geometry">
            <mxPoint x="325" y="460" as="sourcePoint"/>
            <mxPoint x="325" y="510" as="targetPoint"/>
          </mxGeometry>
        </mxCell>
        <mxCell id="E58zXkHPN5G_P_hJAgaH-54" value="" style="edgeStyle=orthogonalEdgeStyle;rounded=0;orthogonalLoop=1;jettySize=auto;html=1;" edge="1" parent="1" source="E58zXkHPN5G_P_hJAgaH-9" target="E58zXkHPN5G_P_hJAgaH-53">
          <mxGeometry relative="1" as="geometry"/>
        </mxCell>
        <mxCell id="E58zXkHPN5G_P_hJAgaH-56" style="edgeStyle=orthogonalEdgeStyle;rounded=0;orthogonalLoop=1;jettySize=auto;html=1;entryX=0.5;entryY=0;entryDx=0;entryDy=0;" edge="1" parent="1" source="E58zXkHPN5G_P_hJAgaH-9" target="E58zXkHPN5G_P_hJAgaH-55">
          <mxGeometry relative="1" as="geometry"/>
        </mxCell>
        <mxCell id="E58zXkHPN5G_P_hJAgaH-9" value="账户" style="rounded=0;whiteSpace=wrap;html=1;" vertex="1" parent="1">
          <mxGeometry x="65" y="520" width="120" height="60" as="geometry"/>
        </mxCell>
        <mxCell id="E58zXkHPN5G_P_hJAgaH-53" value="众禄开户" style="rounded=0;whiteSpace=wrap;html=1;" vertex="1" parent="1">
          <mxGeometry x="-130" y="450" width="120" height="60" as="geometry"/>
        </mxCell>
        <mxCell id="E58zXkHPN5G_P_hJAgaH-10" value="持仓" style="rounded=0;whiteSpace=wrap;html=1;" vertex="1" parent="1">
          <mxGeometry x="195" y="520" width="120" height="60" as="geometry"/>
        </mxCell>
        <mxCell id="E58zXkHPN5G_P_hJAgaH-32" value="" style="edgeStyle=orthogonalEdgeStyle;rounded=0;orthogonalLoop=1;jettySize=auto;html=1;" edge="1" parent="1" source="E58zXkHPN5G_P_hJAgaH-11" target="E58zXkHPN5G_P_hJAgaH-31">
          <mxGeometry relative="1" as="geometry"/>
        </mxCell>
        <mxCell id="E58zXkHPN5G_P_hJAgaH-34" style="edgeStyle=orthogonalEdgeStyle;rounded=0;orthogonalLoop=1;jettySize=auto;html=1;" edge="1" parent="1" source="E58zXkHPN5G_P_hJAgaH-11" target="E58zXkHPN5G_P_hJAgaH-33">
          <mxGeometry relative="1" as="geometry">
            <Array as="points">
              <mxPoint x="385" y="620"/>
              <mxPoint x="515" y="620"/>
            </Array>
          </mxGeometry>
        </mxCell>
        <mxCell id="E58zXkHPN5G_P_hJAgaH-36" style="edgeStyle=orthogonalEdgeStyle;rounded=0;orthogonalLoop=1;jettySize=auto;html=1;entryX=0.5;entryY=0;entryDx=0;entryDy=0;" edge="1" parent="1" source="E58zXkHPN5G_P_hJAgaH-11" target="E58zXkHPN5G_P_hJAgaH-35">
          <mxGeometry relative="1" as="geometry">
            <Array as="points">
              <mxPoint x="385" y="620"/>
              <mxPoint x="245" y="620"/>
            </Array>
          </mxGeometry>
        </mxCell>
        <mxCell id="E58zXkHPN5G_P_hJAgaH-38" style="edgeStyle=orthogonalEdgeStyle;rounded=0;orthogonalLoop=1;jettySize=auto;html=1;" edge="1" parent="1" source="E58zXkHPN5G_P_hJAgaH-11" target="E58zXkHPN5G_P_hJAgaH-37">
          <mxGeometry relative="1" as="geometry">
            <Array as="points">
              <mxPoint x="385" y="620"/>
              <mxPoint x="645" y="620"/>
            </Array>
          </mxGeometry>
        </mxCell>
        <mxCell id="E58zXkHPN5G_P_hJAgaH-50" style="edgeStyle=orthogonalEdgeStyle;rounded=0;orthogonalLoop=1;jettySize=auto;html=1;" edge="1" parent="1" source="E58zXkHPN5G_P_hJAgaH-11" target="E58zXkHPN5G_P_hJAgaH-49">
          <mxGeometry relative="1" as="geometry">
            <Array as="points">
              <mxPoint x="385" y="620"/>
              <mxPoint x="105" y="620"/>
            </Array>
          </mxGeometry>
        </mxCell>
        <mxCell id="E58zXkHPN5G_P_hJAgaH-11" value="交易" style="rounded=0;whiteSpace=wrap;html=1;" vertex="1" parent="1">
          <mxGeometry x="325" y="520" width="120" height="60" as="geometry"/>
        </mxCell>
        <mxCell id="E58zXkHPN5G_P_hJAgaH-31" value="申购" style="rounded=0;whiteSpace=wrap;html=1;" vertex="1" parent="1">
          <mxGeometry x="325" y="660" width="120" height="60" as="geometry"/>
        </mxCell>
        <mxCell id="E58zXkHPN5G_P_hJAgaH-12" value="流水" style="rounded=0;whiteSpace=wrap;html=1;" vertex="1" parent="1">
          <mxGeometry x="455" y="520" width="120" height="60" as="geometry"/>
        </mxCell>
        <mxCell id="E58zXkHPN5G_P_hJAgaH-15" value="策略" style="rounded=0;whiteSpace=wrap;html=1;" vertex="1" parent="1">
          <mxGeometry x="450" y="330" width="120" height="60" as="geometry"/>
        </mxCell>
        <mxCell id="E58zXkHPN5G_P_hJAgaH-28" style="edgeStyle=orthogonalEdgeStyle;rounded=0;orthogonalLoop=1;jettySize=auto;html=1;" edge="1" parent="1" source="E58zXkHPN5G_P_hJAgaH-21" target="E58zXkHPN5G_P_hJAgaH-27">
          <mxGeometry relative="1" as="geometry"/>
        </mxCell>
        <mxCell id="E58zXkHPN5G_P_hJAgaH-41" style="edgeStyle=orthogonalEdgeStyle;rounded=0;orthogonalLoop=1;jettySize=auto;html=1;entryX=0;entryY=0.5;entryDx=0;entryDy=0;" edge="1" parent="1" source="E58zXkHPN5G_P_hJAgaH-21" target="E58zXkHPN5G_P_hJAgaH-25">
          <mxGeometry relative="1" as="geometry"/>
        </mxCell>
        <mxCell id="E58zXkHPN5G_P_hJAgaH-21" value="非货" style="rounded=0;whiteSpace=wrap;html=1;" vertex="1" parent="1">
          <mxGeometry x="640" y="250" width="120" height="60" as="geometry"/>
        </mxCell>
        <mxCell id="E58zXkHPN5G_P_hJAgaH-43" value="" style="edgeStyle=orthogonalEdgeStyle;rounded=0;orthogonalLoop=1;jettySize=auto;html=1;" edge="1" parent="1" source="E58zXkHPN5G_P_hJAgaH-23" target="E58zXkHPN5G_P_hJAgaH-42">
          <mxGeometry relative="1" as="geometry">
            <Array as="points">
              <mxPoint x="790" y="210"/>
              <mxPoint x="790" y="60"/>
            </Array>
          </mxGeometry>
        </mxCell>
        <mxCell id="E58zXkHPN5G_P_hJAgaH-46" style="edgeStyle=orthogonalEdgeStyle;rounded=0;orthogonalLoop=1;jettySize=auto;html=1;" edge="1" parent="1" source="E58zXkHPN5G_P_hJAgaH-23" target="E58zXkHPN5G_P_hJAgaH-45">
          <mxGeometry relative="1" as="geometry">
            <Array as="points">
              <mxPoint x="790" y="210"/>
              <mxPoint x="790" y="130"/>
            </Array>
          </mxGeometry>
        </mxCell>
        <mxCell id="E58zXkHPN5G_P_hJAgaH-48" style="edgeStyle=orthogonalEdgeStyle;rounded=0;orthogonalLoop=1;jettySize=auto;html=1;" edge="1" parent="1" source="E58zXkHPN5G_P_hJAgaH-23" target="E58zXkHPN5G_P_hJAgaH-47">
          <mxGeometry relative="1" as="geometry"/>
        </mxCell>
        <mxCell id="E58zXkHPN5G_P_hJAgaH-23" value="组合" style="rounded=0;whiteSpace=wrap;html=1;" vertex="1" parent="1">
          <mxGeometry x="640" y="180" width="120" height="60" as="geometry"/>
        </mxCell>
        <mxCell id="E58zXkHPN5G_P_hJAgaH-42" value="全明星" style="rounded=0;whiteSpace=wrap;html=1;" vertex="1" parent="1">
          <mxGeometry x="827" y="10" width="120" height="60" as="geometry"/>
        </mxCell>
        <mxCell id="E58zXkHPN5G_P_hJAgaH-25" value="稳健宝" style="rounded=0;whiteSpace=wrap;html=1;" vertex="1" parent="1">
          <mxGeometry x="830" y="330" width="120" height="60" as="geometry"/>
        </mxCell>
        <mxCell id="E58zXkHPN5G_P_hJAgaH-27" value="黄金宝" style="rounded=0;whiteSpace=wrap;html=1;" vertex="1" parent="1">
          <mxGeometry x="830" y="250" width="120" height="60" as="geometry"/>
        </mxCell>
        <mxCell id="E58zXkHPN5G_P_hJAgaH-29" value="生息宝" style="rounded=0;whiteSpace=wrap;html=1;" vertex="1" parent="1">
          <mxGeometry x="450" y="100" width="120" height="60" as="geometry"/>
        </mxCell>
        <mxCell id="E58zXkHPN5G_P_hJAgaH-33" value="赎回" style="rounded=0;whiteSpace=wrap;html=1;" vertex="1" parent="1">
          <mxGeometry x="455" y="660" width="120" height="60" as="geometry"/>
        </mxCell>
        <mxCell id="E58zXkHPN5G_P_hJAgaH-35" value="定投" style="rounded=0;whiteSpace=wrap;html=1;" vertex="1" parent="1">
          <mxGeometry x="185" y="660" width="120" height="60" as="geometry"/>
        </mxCell>
        <mxCell id="E58zXkHPN5G_P_hJAgaH-37" value="转换" style="rounded=0;whiteSpace=wrap;html=1;" vertex="1" parent="1">
          <mxGeometry x="585" y="660" width="120" height="60" as="geometry"/>
        </mxCell>
        <mxCell id="E58zXkHPN5G_P_hJAgaH-39" value="私募产品" style="rounded=0;whiteSpace=wrap;html=1;" vertex="1" parent="1">
          <mxGeometry x="450" y="410" width="120" height="60" as="geometry"/>
        </mxCell>
        <mxCell id="E58zXkHPN5G_P_hJAgaH-45" value="月盈加" style="rounded=0;whiteSpace=wrap;html=1;" vertex="1" parent="1">
          <mxGeometry x="827" y="100" width="120" height="60" as="geometry"/>
        </mxCell>
        <mxCell id="E58zXkHPN5G_P_hJAgaH-47" value="日盈加" style="rounded=0;whiteSpace=wrap;html=1;" vertex="1" parent="1">
          <mxGeometry x="830" y="175" width="120" height="60" as="geometry"/>
        </mxCell>
        <mxCell id="E58zXkHPN5G_P_hJAgaH-49" value="定投" style="rounded=0;whiteSpace=wrap;html=1;" vertex="1" parent="1">
          <mxGeometry x="45" y="660" width="120" height="60" as="geometry"/>
        </mxCell>
        <mxCell id="E58zXkHPN5G_P_hJAgaH-55" value="挖基开户" style="rounded=0;whiteSpace=wrap;html=1;" vertex="1" parent="1">
          <mxGeometry x="-130" y="570" width="120" height="60" as="geometry"/>
        </mxCell>
      </root>
    </mxGraphModel>
  </diagram>
</mxfile>
